<?xml version="1.0" encoding="utf-8"?>
<svg xmlns="http://www.w3.org/2000/svg" xmlns:xlink="http://www.w3.org/1999/xlink" style="margin: auto; background: none; display: block; z-index: 1; position: relative; shape-rendering: auto;" width="260" height="260" preserveAspectRatio="xMidYMid" viewBox="0 0 260 260">
<g transform=""><path id="path0" d="M 52.94589819857066 146.52021330726186
c 0 28.196051878920425 -6.899033970374146 8.098865965221824 -14.99789993559597 8.098865965221824
S 22.950098327378722 174.71626518618228 22.950098327378722 146.52021330726186
s 6.899033970374146 -8.098865965221824 14.99789993559597 -8.098865965221824
S 52.94589819857066 118.32416142834143 52.94589819857066 146.52021330726186
z" fill="none" stroke="none"></path>
<circle cx="0" cy="0" r="9.074869961887988" fill="#ebebeb">
  <animateMotion begin="-2.7535306732198355s" dur="5.01s" repeatCount="indefinite">
    <mpath xlink:href="#path0"></mpath>
  </animateMotion>
</circle><path id="path1" d="M 252.1561485434739 206.41103797832818
c 0 34.42621037765624 -8.423434454107376 9.888379576560835 -18.311814030668213 9.888379576560835
S 215.53252048213747 240.83724835598443 215.53252048213747 206.41103797832818
s 8.423434454107376 -9.888379576560835 18.311814030668213 -9.888379576560835
S 252.1561485434739 171.98482760067193 252.1561485434739 206.41103797832818
z" fill="none" stroke="none"></path>
<circle cx="0" cy="0" r="7.229946702625369" fill="#ffffff">
  <animateMotion begin="-0.38039865987977534s" dur="5.01s" repeatCount="indefinite">
    <mpath xlink:href="#path1"></mpath>
  </animateMotion>
</circle><path id="path2" d="M 118.81916225723782 118.80796956061721
c 0 20.308393661467704 -4.969075044827203 5.8332620091449785 -10.802337053972181 5.8332620091449785
S 97.21448814929346 139.1163632220849 97.21448814929346 118.80796956061721
s 4.969075044827203 -5.8332620091449785 10.802337053972181 -5.8332620091449785
S 118.81916225723782 98.4995758991495 118.81916225723782 118.80796956061721
z" fill="none" stroke="none"></path>
<circle cx="0" cy="0" r="13.857920744941808" fill="#ffffff">
  <animateMotion begin="-0.794046699233417s" dur="5.01s" repeatCount="indefinite">
    <mpath xlink:href="#path2"></mpath>
  </animateMotion>
</circle><path id="path3" d="M 49.55392631150865 129.16084124831332
c 0 37.59836395224394 -9.199599690442666 10.799530071389219 -19.999129761831885 10.799530071389219
S 9.555666787844874 166.75920520055726 9.555666787844874 129.16084124831332
s 9.199599690442666 -10.799530071389219 19.999129761831885 -10.799530071389219
S 49.55392631150865 91.56247729606937 49.55392631150865 129.16084124831332
z" fill="none" stroke="none"></path>
<circle cx="0" cy="0" r="11.969508374202366" fill="#ffffff">
  <animateMotion begin="-0.2839417658139203s" dur="5.01s" repeatCount="indefinite">
    <mpath xlink:href="#path3"></mpath>
  </animateMotion>
</circle><path id="path4" d="M 170.71602921190907 130.46292310318336
c 0 30.506379473220314 -7.464326892383693 8.762470699754772 -16.226797592138464 8.762470699754772
S 138.26243402763214 160.96930257640366 138.26243402763214 130.46292310318336
s 7.464326892383693 -8.762470699754772 16.226797592138464 -8.762470699754772
S 170.71602921190907 99.95654362996305 170.71602921190907 130.46292310318336
z" fill="none" stroke="none"></path>
<circle cx="0" cy="0" r="8.960432642488765" fill="#f0f0f0">
  <animateMotion begin="-2.1890539210389255s" dur="5.01s" repeatCount="indefinite">
    <mpath xlink:href="#path4"></mpath>
  </animateMotion>
</circle><path id="path5" d="M 154.44442579582477 12.688116642250362
c 0 37.5467569375275 -9.186972442160982 10.784706779928111 -19.971679222089094 10.784706779928111
S 114.50106735164657 50.23487357977786 114.50106735164657 12.688116642250362
s 9.186972442160982 -10.784706779928111 19.971679222089094 -10.784706779928111
S 154.44442579582477 -24.858640295277134 154.44442579582477 12.688116642250362
z" fill="none" stroke="none"></path>
<circle cx="0" cy="0" r="12.271992977055522" fill="#e7e7e7">
  <animateMotion begin="-4.449432745506634s" dur="5.01s" repeatCount="indefinite">
    <mpath xlink:href="#path5"></mpath>
  </animateMotion>
</circle><path id="path6" d="M 104.84316436507845 56.1487572095778
c 0 22.264980604597113 -5.447814403252485 6.3952603864268305 -11.843074789679315 6.3952603864268305
S 81.15701478571981 78.41373781417491 81.15701478571981 56.1487572095778
s 5.447814403252485 -6.3952603864268305 11.843074789679315 -6.3952603864268305
S 104.84316436507845 33.88377660498069 104.84316436507845 56.1487572095778
z" fill="none" stroke="none"></path>
<circle cx="0" cy="0" r="9.58466984439184" fill="#f0f0f0">
  <animateMotion begin="-2.247899621613377s" dur="5.01s" repeatCount="indefinite">
    <mpath xlink:href="#path6"></mpath>
  </animateMotion>
</circle><path id="path7" d="M 227.64418994395086 169.30206711326417
c 0 21.891791688663535 -5.356502221694268 6.288067825467185 -11.644570047161453 6.288067825467185
S 204.35504984962793 191.19385880192772 204.35504984962793 169.30206711326417
s 5.356502221694268 -6.288067825467185 11.644570047161453 -6.288067825467185
S 227.64418994395086 147.41027542460063 227.64418994395086 169.30206711326417
z" fill="none" stroke="none"></path>
<circle cx="0" cy="0" r="13.89145749828857" fill="#f8f8f8">
  <animateMotion begin="-0.9776127599294047s" dur="5.01s" repeatCount="indefinite">
    <mpath xlink:href="#path7"></mpath>
  </animateMotion>
</circle><path id="path8" d="M 195.52784245585295 98.93475775831517
c 0 29.297003854422336 -7.168415836720358 8.41509685180216 -15.583512688522518 8.41509685180216
S 164.3608170788079 128.2317616127375 164.3608170788079 98.93475775831517
s 7.168415836720358 -8.41509685180216 15.583512688522518 -8.41509685180216
S 195.52784245585295 69.63775390389284 195.52784245585295 98.93475775831517
z" fill="none" stroke="none"></path>
<circle cx="0" cy="0" r="9.593737782355628" fill="#f8f8f8">
  <animateMotion begin="-1.7385689768001082s" dur="5.01s" repeatCount="indefinite">
    <mpath xlink:href="#path8"></mpath>
  </animateMotion>
</circle><path id="path9" d="M 115.75898100102549 45.97202891897457
c 0 26.57399801468837 -6.502148450402473 7.632956876559426 -14.135105326961899 7.632956876559426
S 87.48877034710168 72.54602693366294 87.48877034710168 45.97202891897457
s 6.502148450402473 -7.632956876559426 14.135105326961899 -7.632956876559426
S 115.75898100102549 19.398030904286202 115.75898100102549 45.97202891897457
z" fill="none" stroke="none"></path>
<circle cx="0" cy="0" r="12.14241330894749" fill="#ebebeb">
  <animateMotion begin="-2.0661050273459s" dur="5.01s" repeatCount="indefinite">
    <mpath xlink:href="#path9"></mpath>
  </animateMotion>
</circle><path id="path10" d="M 161.8827960272512 89.47647240713312
c 0 36.05925180370394 -8.823008420055217 10.357444667021344 -19.18045308707656 10.357444667021344
S 123.52188985309809 125.53572421083706 123.52188985309809 89.47647240713312
s 8.823008420055217 -10.357444667021344 19.18045308707656 -10.357444667021344
S 161.8827960272512 53.41722060342918 161.8827960272512 89.47647240713312
z" fill="none" stroke="none"></path>
<circle cx="0" cy="0" r="8.88689810679246" fill="#e7e7e7">
  <animateMotion begin="-1.2345284375160095s" dur="5.01s" repeatCount="indefinite">
    <mpath xlink:href="#path10"></mpath>
  </animateMotion>
</circle><path id="path11" d="M 110.71749684966724 32.20900150602277
c 0 36.24784884596415 -8.869154504863568 10.41161615788332 -19.280770662746885 10.41161615788332
S 72.15595552417346 68.45685035198693 72.15595552417346 32.20900150602277
s 8.869154504863568 -10.41161615788332 19.280770662746885 -10.41161615788332
S 110.71749684966724 -4.038847339941377 110.71749684966724 32.20900150602277
z" fill="none" stroke="none"></path>
<circle cx="0" cy="0" r="9.798907002882116" fill="#ffffff">
  <animateMotion begin="-1.7565120516167743s" dur="5.01s" repeatCount="indefinite">
    <mpath xlink:href="#path11"></mpath>
  </animateMotion>
</circle><path id="path12" d="M 111.70012440373937 130.13825736752446
c 0 23.86316783825091 -5.838860215742243 6.8543141663061125 -12.693174382048355 6.8543141663061125
S 86.31377563964266 154.00142520577538 86.31377563964266 130.13825736752446
s 5.838860215742243 -6.8543141663061125 12.693174382048355 -6.8543141663061125
S 111.70012440373937 106.27508952927354 111.70012440373937 130.13825736752446
z" fill="none" stroke="none"></path>
<circle cx="0" cy="0" r="8.528583772787268" fill="#f8f8f8">
  <animateMotion begin="-2.1791189930069814s" dur="5.01s" repeatCount="indefinite">
    <mpath xlink:href="#path12"></mpath>
  </animateMotion>
</circle><path id="path13" d="M 256.43676871905933 70.58577151590251
c 0 20.097317268002826 -4.917428693234733 5.772633683362514 -10.690062376597247 5.772633683362514
S 235.05664396586485 90.68308878390533 235.05664396586485 70.58577151590251
s 4.917428693234733 -5.772633683362514 10.690062376597247 -5.772633683362514
S 256.43676871905933 50.48845424789968 256.43676871905933 70.58577151590251
z" fill="none" stroke="none"></path>
<circle cx="0" cy="0" r="11.361488845721981" fill="#ffffff">
  <animateMotion begin="-2.5024723298412193s" dur="5.01s" repeatCount="indefinite">
    <mpath xlink:href="#path13"></mpath>
  </animateMotion>
</circle><path id="path14" d="M 213.78985453431207 112.64097193809761
c 0 33.97598567886067 -8.31327309163612 9.75905971626849 -18.07233280790461 9.75905971626849
S 177.64518891850284 146.61695761695827 177.64518891850284 112.64097193809761
s 8.31327309163612 -9.75905971626849 18.07233280790461 -9.75905971626849
S 213.78985453431207 78.66498625923694 213.78985453431207 112.64097193809761
z" fill="none" stroke="none"></path>
<circle cx="0" cy="0" r="11.000407539258669" fill="#ffffff">
  <animateMotion begin="-1.76538035545916s" dur="5.01s" repeatCount="indefinite">
    <mpath xlink:href="#path14"></mpath>
  </animateMotion>
</circle><path id="path15" d="M 145.75828431429792 126.99757771367638
c 0 30.911842304644406 -7.563535883051291 8.878933427929777 -16.442469310981068 8.878933427929777
S 112.87334569233579 157.9094200183208 112.87334569233579 126.99757771367638
s 7.563535883051291 -8.878933427929777 16.442469310981068 -8.878933427929777
S 145.75828431429792 96.08573540903197 145.75828431429792 126.99757771367638
z" fill="none" stroke="none"></path>
<circle cx="0" cy="0" r="9.814857229808451" fill="#ffffff">
  <animateMotion begin="-1.8252734822316314s" dur="5.01s" repeatCount="indefinite">
    <mpath xlink:href="#path15"></mpath>
  </animateMotion>
</circle><path id="path16" d="M 192.06359790388507 65.94346806882814
c 0 36.576792219910175 -8.949640649552489 10.506099892952923 -19.45574054250541 10.506099892952923
S 153.15211681887428 102.52026028873831 153.15211681887428 65.94346806882814
s 8.949640649552489 -10.506099892952923 19.45574054250541 -10.506099892952923
S 192.06359790388507 29.366675848917964 192.06359790388507 65.94346806882814
z" fill="none" stroke="none"></path>
<circle cx="0" cy="0" r="11.754336136089696" fill="#ffffff">
  <animateMotion begin="-4.644773985773606s" dur="5.01s" repeatCount="indefinite">
    <mpath xlink:href="#path16"></mpath>
  </animateMotion>
</circle><path id="path17" d="M 262.4568727204896 99.55072102684767
c 0 34.83287204517797 -8.52293677701163 10.005186651274524 -18.528123428286154 10.005186651274524
S 225.4006258639173 134.38359307202563 225.4006258639173 99.55072102684767
s 8.52293677701163 -10.005186651274524 18.528123428286154 -10.005186651274524
S 262.4568727204896 64.7178489816697 262.4568727204896 99.55072102684767
z" fill="none" stroke="none"></path>
<circle cx="0" cy="0" r="8.465683408998615" fill="#ffffff">
  <animateMotion begin="-3.8345243148043022s" dur="5.01s" repeatCount="indefinite">
    <mpath xlink:href="#path17"></mpath>
  </animateMotion>
</circle><path id="path18" d="M 164.82082815442794 54.5775846592042
c 0 27.024097779211164 -6.61227924384954 7.762240851475548 -14.374520095325087 7.762240851475548
S 136.07178796377775 81.60168243841537 136.07178796377775 54.5775846592042
s 6.61227924384954 -7.762240851475548 14.374520095325087 -7.762240851475548
S 164.82082815442794 27.553486879993034 164.82082815442794 54.5775846592042
z" fill="none" stroke="none"></path>
<circle cx="0" cy="0" r="11.061580231758365" fill="#f0f0f0">
  <animateMotion begin="-2.4986273328962767s" dur="5.01s" repeatCount="indefinite">
    <mpath xlink:href="#path18"></mpath>
  </animateMotion>
</circle><path id="path19" d="M 187.1847865889958 59.066042773672415
c 0 19.66360290759626 -4.81130709441185 5.648056154309564 -10.459363248721413 5.648056154309564
S 166.26606009155296 78.72964568126868 166.26606009155296 59.066042773672415
s 4.81130709441185 -5.648056154309564 10.459363248721413 -5.648056154309564
S 187.1847865889958 39.40243986607615 187.1847865889958 59.066042773672415
z" fill="none" stroke="none"></path>
<circle cx="0" cy="0" r="7.444609650779905" fill="#e7e7e7">
  <animateMotion begin="-1.241961563384101s" dur="5.01s" repeatCount="indefinite">
    <mpath xlink:href="#path19"></mpath>
  </animateMotion>
</circle></g>
</svg>